<svg width="75" height="55" viewBox="0 0 75 55" fill="none" xmlns="http://www.w3.org/2000/svg">
<g clip-path="url(#clip0_39_818)">
<path d="M35 5V0H40V55H35V50H13.4167C12.082 50 11 48.8807 11 47.5C11 46.1193 12.082 45 13.4167 45H35V40H13.4167C12.082 40 11 38.8807 11 37.5C11 36.1193 12.082 35 13.4167 35H35V30H13.4167C12.082 30 11 28.8807 11 27.5C11 26.1193 12.082 25 13.4167 25H35V20H13.4167C12.082 20 11 18.8807 11 17.5C11 16.1193 12.082 15 13.4167 15H35V10H13.4167C12.082 10 11 8.88071 11 7.5C11 6.11929 12.082 5 13.4167 5H35Z" fill="black"/>
</g>
<defs>
<clipPath id="clip0_39_818">
<rect width="75" height="55" fill="white"/>
</clipPath>
</defs>
</svg>
