<svg width="75" height="32" viewBox="0 0 75 32" fill="none" xmlns="http://www.w3.org/2000/svg">
<g clip-path="url(#clip0_39_812)">
<path d="M40 0H35V11.1977L22.6083 2.52087C21.4773 1.72892 19.9184 2.00379 19.1264 3.1348C18.3345 4.26582 18.6094 5.82468 19.7404 6.61663L33.1411 15.9999L19.7401 25.3835C18.6091 26.1754 18.3342 27.7343 19.1262 28.8653C19.9181 29.9963 21.477 30.2712 22.608 29.4792L35 20.8022V32H40V20.8026L52.3918 29.4794C53.5228 30.2713 55.0817 29.9965 55.8736 28.8654C56.6656 27.7344 56.3907 26.1756 55.2597 25.3836L41.8584 15.9999L55.2594 6.61645C56.3904 5.82451 56.6653 4.26565 55.8733 3.13463C55.0814 2.00362 53.5225 1.72875 52.3915 2.52069L40 11.1973V0Z" fill="black"/>
</g>
<defs>
<clipPath id="clip0_39_812">
<rect width="75" height="32" fill="white"/>
</clipPath>
</defs>
</svg>
