<svg width="75" height="45" viewBox="0 0 75 45" fill="none" xmlns="http://www.w3.org/2000/svg">
<g clip-path="url(#clip0_39_810)">
<path fill-rule="evenodd" clip-rule="evenodd" d="M35 10V0H40V32.5L40 45H35V35H30V37.5C30 38.8807 28.8807 40 27.5 40C26.1193 40 25 38.8807 25 37.5V35H20V37.5C20 38.8807 18.8807 40 17.5 40C16.1193 40 15 38.8807 15 37.5V35H10V37.5C10 38.8807 8.88071 40 7.5 40C6.11929 40 5 38.8807 5 37.5V35H2.5C1.11929 35 0 33.8807 0 32.5C0 31.1193 1.11929 30 2.5 30H5V25H2.5C1.11929 25 0 23.8807 0 22.5C0 21.1193 1.11929 20 2.5 20H5V15H2.5C1.11929 15 0 13.8807 0 12.5C0 11.1193 1.11929 10 2.5 10H5V7.5C5 6.11929 6.11929 5 7.5 5C8.88071 5 10 6.11929 10 7.5V10H15V7.5C15 6.11929 16.1193 5 17.5 5C18.8807 5 20 6.11929 20 7.5V10H25V7.5C25 6.11929 26.1193 5 27.5 5C28.8807 5 30 6.11929 30 7.5V10H35ZM35 15V20H30V15H35ZM35 25V30H30V25H35ZM20 30H25V25H20V30ZM20 20H25V15H20V20ZM10 30V25H15V30H10ZM10 20V15H15V20H10Z" fill="black"/>
</g>
<defs>
<clipPath id="clip0_39_810">
<rect width="75" height="45" fill="white"/>
</clipPath>
</defs>
</svg>
