<svg width="75" height="36" viewBox="0 0 75 36" fill="none" xmlns="http://www.w3.org/2000/svg">
<g clip-path="url(#clip0_39_830)">
<path d="M39.9997 0H34.9997V9.18435L14.8626 1.85505C13.5651 1.38282 12.1305 2.05179 11.6583 3.34923C11.1861 4.64668 11.855 6.08128 13.1525 6.55351L34.9997 14.5052V19.1844L14.8626 11.8551C13.5651 11.3828 12.1305 12.0518 11.6583 13.3492C11.1861 14.6467 11.855 16.0813 13.1525 16.5535L34.9997 24.5052V36H39.9997V26.3251L60.1371 33.6545C61.4345 34.1268 62.8691 33.4578 63.3414 32.1603C63.8136 30.8629 63.1446 29.4283 61.8472 28.9561L39.9997 21.0042V16.3251L60.1371 23.6545C61.4345 24.1268 62.8691 23.4578 63.3414 22.1603C63.8136 20.8629 63.1446 19.4283 61.8472 18.9561L39.9997 11.0042V0Z" fill="black"/>
</g>
<defs>
<clipPath id="clip0_39_830">
<rect width="75" height="36" fill="white"/>
</clipPath>
</defs>
</svg>
