<svg width="75" height="47" viewBox="0 0 75 47" fill="none" xmlns="http://www.w3.org/2000/svg">
<g clip-path="url(#clip0_39_813)">
<path fill-rule="evenodd" clip-rule="evenodd" d="M40.0049 5.60344L40.0049 0H35.0049L35.0049 47H40.0049L40.0049 41.7625L57.582 31.5324L70.394 38.9891C71.5873 39.6836 73.2758 39.3906 74.1654 38.3347C75.0549 37.2787 74.8087 35.8596 73.6154 35.1651L62.4779 28.683L66.1729 26.5324L70.394 28.9891C71.5873 29.6836 73.2758 29.3906 74.1654 28.3347C75.0549 27.2787 74.8087 25.8597 73.6154 25.1651L71.0688 23.683L73.6155 22.2007C74.8089 21.5062 75.0551 20.0871 74.1656 19.0312C73.276 17.9752 71.5875 17.6822 70.3942 18.3767L66.1729 20.8335L62.4779 18.683L73.6155 12.2007C74.8089 11.5062 75.0551 10.0871 74.1656 9.03118C73.276 7.97522 71.5875 7.68221 70.3942 8.37673L57.582 15.8335L40.0049 5.60344ZM40.0049 11.3023L40.0049 15.6034L48.9911 20.8335L52.6862 18.683L40.0049 11.3023ZM40.0049 21.3023L40.0049 26.0637L44.0953 23.683L40.0049 21.3023ZM40.0049 31.7625L40.0049 36.0637L52.6862 28.683L48.9911 26.5324L40.0049 31.7625ZM53.887 23.683L57.582 21.5324L61.2771 23.683L57.582 25.8335L53.887 23.683Z" fill="black"/>
</g>
<defs>
<clipPath id="clip0_39_813">
<rect width="75" height="47" fill="white"/>
</clipPath>
</defs>
</svg>
