<svg width="75" height="55" viewBox="0 0 75 55" fill="none" xmlns="http://www.w3.org/2000/svg">
<g clip-path="url(#clip0_39_828)">
<path d="M40 5V0H35V5H25.4167C24.082 5 23 6.11929 23 7.5C23 8.88071 24.082 10 25.4167 10H35V15H25.4167C24.082 15 23 16.1193 23 17.5C23 18.8807 24.082 20 25.4167 20H35V25H25.4167C24.082 25 23 26.1193 23 27.5C23 28.8807 24.082 30 25.4167 30H35V35H25.4167C24.082 35 23 36.1193 23 37.5C23 38.8807 24.082 40 25.4167 40H35V45H25.4167C24.082 45 23 46.1193 23 47.5C23 48.8807 24.082 50 25.4167 50H35V55H40V50H49.5833C50.918 50 52 48.8807 52 47.5C52 46.1193 50.918 45 49.5833 45H40V40H49.5833C50.918 40 52 38.8807 52 37.5C52 36.1193 50.918 35 49.5833 35H40V30H49.5833C50.918 30 52 28.8807 52 27.5C52 26.1193 50.918 25 49.5833 25H40V20H49.5833C50.918 20 52 18.8807 52 17.5C52 16.1193 50.918 15 49.5833 15H40V10H49.5833C50.918 10 52 8.88071 52 7.5C52 6.11929 50.918 5 49.5833 5H40Z" fill="black"/>
</g>
<defs>
<clipPath id="clip0_39_828">
<rect width="75" height="55" fill="white"/>
</clipPath>
</defs>
</svg>
