<svg width="75" height="45" viewBox="0 0 75 45" fill="none" xmlns="http://www.w3.org/2000/svg">
<g clip-path="url(#clip0_39_822)">
<path d="M40 5V0H35V45H40V40H61.5833C62.918 40 64 38.8807 64 37.5C64 36.1193 62.918 35 61.5833 35H40V30H61.5833C62.918 30 64 28.8807 64 27.5C64 26.1193 62.918 25 61.5833 25H40V20H61.5833C62.918 20 64 18.8807 64 17.5C64 16.1193 62.918 15 61.5833 15H40V10H61.5833C62.918 10 64 8.88071 64 7.5C64 6.11929 62.918 5 61.5833 5H40Z" fill="black"/>
</g>
<defs>
<clipPath id="clip0_39_822">
<rect width="75" height="45" fill="white"/>
</clipPath>
</defs>
</svg>
