<svg width="175" height="375" viewBox="0 0 175 375" fill="none" xmlns="http://www.w3.org/2000/svg">
<g clip-path="url(#clip0_52_841)">
<path fill-rule="evenodd" clip-rule="evenodd" d="M13 370H162C166.418 370 170 366.418 170 362V62.3429C170 59.3078 168.282 56.534 165.565 55.1813L66.4503 5.83839C65.3427 5.28698 64.1223 5 62.885 5H13C8.58172 5 5 8.58172 5 13V362C5 366.418 8.58172 370 13 370ZM13 375H162C169.18 375 175 369.18 175 362V62.3429C175 57.4108 172.209 52.9034 167.794 50.7053L68.6786 1.36239C66.8788 0.466348 64.8956 0 62.885 0H13C5.8203 0 0 5.8203 0 13V362C0 369.18 5.8203 375 13 375Z" fill="black"/>
</g>
<defs>
<clipPath id="clip0_52_841">
<rect width="175" height="375" fill="white"/>
</clipPath>
</defs>
</svg>
