<svg width="175" height="250" viewBox="0 0 175 250" fill="none" xmlns="http://www.w3.org/2000/svg">
<g clip-path="url(#clip0_52_842)">
<path fill-rule="evenodd" clip-rule="evenodd" d="M17.5503 244.937H146.232C150.203 244.937 153.561 241.996 154.129 237.983L169.903 126.573C170.177 124.637 169.748 122.666 168.695 121.024L96.6597 8.75967C95.1805 6.45436 92.6447 5.06262 89.9234 5.06262H44.8874C43.0591 5.06262 41.7844 5.64426 41.01 6.4929C30.6944 17.798 -8.28834 72.3386 9.68387 237.76C10.127 241.838 13.5503 244.937 17.5503 244.937ZM17.5503 250H146.232C152.722 250 158.176 245.184 159.094 238.699L174.869 127.289C175.314 124.143 174.617 120.94 172.905 118.272L100.87 6.00771C98.4662 2.26158 94.3454 0 89.9234 0H44.8874C42.0181 0 39.2642 0.933052 37.3204 3.06328C25.684 15.8157 -13.3681 72.028 4.69777 238.312C5.4162 244.925 10.9592 250 17.5503 250Z" fill="black"/>
</g>
<defs>
<clipPath id="clip0_52_842">
<rect width="175" height="250" fill="white"/>
</clipPath>
</defs>
</svg>
