<svg width="175" height="500" viewBox="0 0 175 500" fill="none" xmlns="http://www.w3.org/2000/svg">
<g clip-path="url(#clip0_38_805)">
<path fill-rule="evenodd" clip-rule="evenodd" d="M15.0142 495H162C166.418 495 170 491.418 170 487V13C170 8.58173 166.418 5 162 5H68.8093C65.8254 5 63.3066 6.5667 62.1193 9.02372C48.3425 37.5341 -2.52773 154.285 5.94607 307.556C10.6421 392.496 8.28299 458.576 6.81564 486.24C6.56297 491.003 10.3536 495 15.0142 495ZM15.0142 500H162C169.18 500 175 494.18 175 487V13C175 5.82031 169.18 0 162 0H68.8093C64.0364 0 59.694 2.55077 57.6174 6.84829C43.6537 35.7454 -7.58546 153.379 0.953695 307.832C5.63724 392.547 3.28317 458.44 1.82266 485.975C1.42112 493.545 7.43346 500 15.0142 500Z" fill="black"/>
</g>
<defs>
<clipPath id="clip0_38_805">
<rect width="175" height="500" fill="white"/>
</clipPath>
</defs>
</svg>
