<svg width="75" height="56" viewBox="0 0 75 56" fill="none" xmlns="http://www.w3.org/2000/svg">
<g clip-path="url(#clip0_39_832)">
<path d="M39.9997 0H34.9997V9.18435L14.8626 1.85505C13.5651 1.38282 12.1305 2.05179 11.6583 3.34923C11.1861 4.64668 11.855 6.08128 13.1525 6.55351L34.9997 14.5052V19.1844L14.8626 11.8551C13.5651 11.3828 12.1305 12.0518 11.6583 13.3492C11.1861 14.6467 11.855 16.0813 13.1525 16.5535L34.9997 24.5052V29.1844L14.8626 21.8551C13.5651 21.3828 12.1305 22.0518 11.6583 23.3492C11.1861 24.6467 11.855 26.0813 13.1525 26.5535L34.9997 34.5052V39.1844L14.8626 31.8551C13.5651 31.3828 12.1305 32.0518 11.6583 33.3492C11.1861 34.6467 11.855 36.0813 13.1525 36.5535L34.9997 44.5052V56H39.9997V46.3251L60.1371 53.6545C61.4345 54.1268 62.8691 53.4578 63.3414 52.1603C63.8136 50.8629 63.1446 49.4283 61.8472 48.9561L39.9997 41.0042V36.3251L60.1371 43.6545C61.4345 44.1268 62.8691 43.4578 63.3414 42.1603C63.8136 40.8629 63.1446 39.4283 61.8472 38.9561L39.9997 31.0042V26.3251L60.1371 33.6545C61.4345 34.1268 62.8691 33.4578 63.3414 32.1603C63.8136 30.8629 63.1446 29.4283 61.8472 28.9561L39.9997 21.0042V16.3251L60.1371 23.6545C61.4345 24.1268 62.8691 23.4578 63.3414 22.1603C63.8136 20.8629 63.1446 19.4283 61.8472 18.9561L39.9997 11.0042V0Z" fill="black"/>
</g>
<defs>
<clipPath id="clip0_39_832">
<rect width="75" height="56" fill="white"/>
</clipPath>
</defs>
</svg>
