<svg width="35" height="25" viewBox="0 0 35 25" fill="none" xmlns="http://www.w3.org/2000/svg">
<g clip-path="url(#clip0_23_1487)">
<path d="M33.0781 24.8113C32.7604 24.9386 32.4222 25.003 32.0792 24.9999H2.92098C2.57483 25.0015 2.23186 24.937 1.90941 24.8113L12.2148 14.2858C13.3149 15.4176 14.2127 16.323 14.7311 16.8512C16.2611 18.3602 18.7268 18.3602 20.2567 16.8512C20.7625 16.3356 21.6603 15.405 22.7856 14.2732L33.0781 24.8113ZM2.71859 4.57763L0.16438 1.96196C0.0584807 2.26534 0.00316013 2.58444 0 2.90513V22.0953C0.00158047 22.405 0.0568986 22.7115 0.16438 23.0007L10.4573 12.4877C7.96631 9.93493 4.96952 6.87861 2.71859 4.57763ZM32.0791 0.000201095H2.9209C2.58898 0.000201095 2.25865 0.059935 1.94729 0.176256C5.46879 3.75864 9.47537 7.87881 13.0871 11.5693C13.0934 11.5693 13.0997 11.5756 13.0997 11.5819C18.1842 16.6861 16.7066 16.8414 21.8243 11.6448C25.5449 7.81716 29.6226 3.6879 33.0527 0.176055C32.7413 0.0597339 32.411 0.000201095 32.0791 0.000201095ZM34.8356 1.96196C31.6429 5.22684 28.1293 8.79973 24.5427 12.4625L34.8356 23.0008C34.9431 22.7116 34.9984 22.405 35 22.0954V2.90521C34.9968 2.58453 34.9415 2.26537 34.8356 1.96196Z" fill="black"/>
</g>
<defs>
<clipPath id="clip0_23_1487">
<rect width="35" height="25" fill="white"/>
</clipPath>
</defs>
</svg>
