<svg width="420" height="420" viewBox="0 0 420 420" fill="none" xmlns="http://www.w3.org/2000/svg">
<g clip-path="url(#clip0_147_285)">
<path d="M341.531 208.246C341.017 208.559 324.051 205.712 302.792 204.273C285.43 203.096 265.204 203.141 248.735 204.257C235.38 205.161 217.833 198.448 215.737 206.426C207.889 236.292 191.003 262.303 169.523 282.569C153.364 297.814 134.869 309.374 114.865 316.497C91.0504 304.263 79.8035 277.054 89.952 253.197C98.0009 234.274 107.366 213.434 90.0759 208.666C77.4886 205.194 70.5772 217.252 65.7388 230.143C56.4696 254.838 38.8562 280.393 33.8368 310.661C28.5382 342.614 33.8196 376.533 61.4557 395.687C125.818 440.295 195.683 368.034 269.346 349.869C296.042 343.285 325.347 344.346 348.867 330.724C366.53 320.493 378.174 303.54 381.479 284.505C386.795 253.89 370.867 223.473 341.531 208.246Z" fill="#C21325" stroke="white" stroke-width="20"/>
<path d="M215.737 206.426C207.889 236.292 191.003 262.303 169.523 282.569C153.364 297.814 134.869 309.374 114.864 316.497C91.0494 304.263 79.8026 277.054 89.951 253.197C97.9999 234.275 107.365 213.434 90.0749 208.666C77.4877 205.194 70.5762 217.252 65.7378 230.143C56.4686 254.838 38.8552 280.393 33.8358 310.661C28.5372 342.615 33.8186 376.534 61.4547 395.687C125.817 440.296 195.682 368.034 269.346 349.869C296.042 343.285 325.347 344.347 348.867 330.724C366.53 320.493 378.174 303.54 381.479 284.507C386.795 253.892 370.867 223.475 341.531 208.248" stroke="white" stroke-width="20"/>
<path d="M274.82 87.3258L326.569 192.89L388.579 10H160.908L222.776 192.565L274.82 87.3258Z" fill="#C21325"/>
<path d="M274.82 87.3258L326.569 192.89L388.578 10H160.908L222.776 192.565L274.82 87.3258Z" stroke="white" stroke-width="20"/>
<path d="M212.038 245.805C233.58 245.805 251.044 228.341 251.044 206.799C251.044 185.256 233.58 167.793 212.038 167.793C190.495 167.793 173.032 185.256 173.032 206.799C173.032 228.341 190.495 245.805 212.038 245.805Z" fill="#C21325"/>
<path d="M212.038 245.805C233.58 245.805 251.044 228.341 251.044 206.799C251.044 185.256 233.58 167.793 212.038 167.793C190.495 167.793 173.032 185.256 173.032 206.799C173.032 228.341 190.495 245.805 212.038 245.805Z" stroke="white" stroke-width="20"/>
<path d="M339.104 245.805C360.647 245.805 378.11 228.341 378.11 206.799C378.11 185.256 360.647 167.793 339.104 167.793C317.562 167.793 300.099 185.256 300.099 206.799C300.099 228.341 317.562 245.805 339.104 245.805Z" fill="#C21325" stroke="white" stroke-width="20"/>
<path d="M339.104 245.805C360.647 245.805 378.11 228.341 378.11 206.799C378.11 185.256 360.647 167.793 339.104 167.793C317.562 167.793 300.099 185.256 300.099 206.799C300.099 228.341 317.562 245.805 339.104 245.805Z" stroke="white" stroke-width="20"/>
<path d="M84.4895 246.085C106.032 246.085 123.495 228.621 123.495 207.079C123.495 185.537 106.032 168.073 84.4895 168.073C62.9471 168.073 45.4836 185.537 45.4836 207.079C45.4836 228.621 62.9471 246.085 84.4895 246.085Z" fill="#C21325"/>
<path d="M84.4895 246.085C106.032 246.085 123.495 228.621 123.495 207.079C123.495 185.537 106.032 168.073 84.4895 168.073C62.9471 168.073 45.4836 185.537 45.4836 207.079C45.4836 228.621 62.9471 246.085 84.4895 246.085Z" stroke="white" stroke-width="20"/>
</g>
<defs>
<clipPath id="clip0_147_285">
<rect width="420" height="420" fill="white"/>
</clipPath>
</defs>
</svg>
