<svg width="400" height="400" viewBox="0 0 400 400" fill="none" xmlns="http://www.w3.org/2000/svg">
<path d="M234.6 44.5827C217.882 24.6644 203.485 4.43494 200.544 0.233418C200.234 -0.077806 199.77 -0.077806 199.46 0.233418C196.519 4.43494 182.122 24.6644 165.404 44.5827C21.9022 228.36 188.005 352.383 188.005 352.383L189.398 353.317C190.636 372.456 193.732 400 193.732 400H199.925H206.117C206.117 400 209.213 372.612 210.451 353.317L211.844 352.227C211.999 352.227 378.102 228.36 234.6 44.5827ZM199.925 349.581C199.925 349.581 192.494 343.202 190.482 339.933V339.623L199.46 139.506C199.46 138.883 200.389 138.883 200.389 139.506L209.367 339.623V339.933C207.355 343.202 199.925 349.581 199.925 349.581Z" fill="#00ED64"/>
</svg>
