<svg width="100" height="100" viewBox="0 0 100 100" fill="none" xmlns="http://www.w3.org/2000/svg">
<path d="M50.0987 100C48.7291 100 47.4507 99.6326 46.2639 98.9893L34.1207 91.7318C32.2949 90.7211 33.2078 90.3536 33.7556 90.1699C36.2209 89.3429 36.6771 89.1592 39.2335 87.6893C39.5075 87.5056 39.873 87.5977 40.1469 87.7815L49.4597 93.3854C49.8248 93.5691 50.281 93.5691 50.555 93.3854L86.9853 72.1632C87.348 71.9795 87.5341 71.6121 87.5341 71.153V28.8009C87.5341 28.3418 87.348 27.9743 86.9853 27.7906L50.555 6.66058C50.1899 6.47685 49.7332 6.47685 49.4597 6.66058L13.0303 27.7906C12.6647 27.9743 12.4824 28.4334 12.4824 28.8009V71.153C12.4824 71.5204 12.6647 71.9795 13.0303 72.1632L22.9821 77.9514C28.3689 80.7073 31.7471 77.4918 31.7471 74.2763V32.4759C31.7471 31.9247 32.2033 31.3735 32.8427 31.3735H37.4989C38.0467 31.3735 38.5946 31.8326 38.5946 32.4759V74.2763C38.5946 81.5343 34.6685 85.76 27.821 85.76C25.7213 85.76 24.0778 85.76 19.4211 83.4636L9.83439 77.9514C7.46073 76.5732 6 74.001 6 71.2446V28.893C6 26.1366 7.46073 23.5644 9.83439 22.1862L46.2639 0.964566C48.5464 -0.321522 51.6506 -0.321522 53.9331 0.964566L90.364 22.1862C92.7357 23.5644 94.196 26.1366 94.196 28.893V71.2446C94.196 74.001 92.7357 76.5732 90.364 77.9514L53.9331 99.173C52.8374 99.6326 51.4683 100 50.0987 100Z" fill="#5FA04E"/>
<path d="M61.4213 70.8771C45.4413 70.8771 42.1548 63.5276 42.1548 57.2804C42.1548 56.7292 42.611 56.178 43.25 56.178H47.9978C48.5456 56.178 49.0023 56.5455 49.0023 57.0967C49.7325 61.9657 51.8327 64.3546 61.512 64.3546C69.1808 64.3546 72.4688 62.6089 72.4688 58.4749C72.4688 56.0864 71.5525 54.3408 59.5931 53.1463C49.6413 52.1356 43.4328 49.9308 43.4328 41.938C43.4328 34.4968 49.6413 30.0869 60.0498 30.0869C71.7386 30.0869 77.4891 34.1294 78.2192 42.9487C78.2192 43.2246 78.1285 43.4999 77.9472 43.7758C77.7611 43.9595 77.4891 44.1432 77.2123 44.1432H72.3733C71.92 44.1432 71.4619 43.7758 71.3712 43.3162C70.2736 38.2635 67.4437 36.6099 59.9587 36.6099C51.5588 36.6099 50.5542 39.5496 50.5542 41.7543C50.5542 44.4186 51.741 45.2456 63.0629 46.7154C74.2917 48.1852 79.5888 50.2983 79.5888 58.199C79.5888 66.2835 72.9221 70.8771 61.4213 70.8771Z" fill="#5FA04E"/>
</svg>
