<svg width="150" height="150" viewBox="0 0 150 150" fill="none" xmlns="http://www.w3.org/2000/svg">
<g clip-path="url(#clip0_159_369)">
<path fill-rule="evenodd" clip-rule="evenodd" d="M134.705 115.677C136.056 133.008 136.056 141.132 136.056 150H95.927C95.927 148.069 95.9615 146.301 95.9964 144.51C96.1051 138.939 96.2184 133.131 95.3153 121.401C94.1216 104.229 86.7211 100.412 73.1136 100.412H61.0579H10V69.1677H75.0234C92.2118 69.1677 100.806 63.9429 100.806 50.1093C100.806 37.9453 92.2118 30.5739 75.0234 30.5739H10V0H82.1852C121.098 0 140.435 18.3652 140.435 47.7019C140.435 69.6447 126.828 83.9553 108.446 86.3404C123.963 89.441 133.034 98.2658 134.705 115.677Z" fill="white"/>
<path d="M10 150V126.708H52.4301C59.5173 126.708 61.0562 131.961 61.0562 135.093V150H10Z" fill="white"/>
</g>
<defs>
<clipPath id="clip0_159_369">
<rect width="150" height="150" fill="white"/>
</clipPath>
</defs>
</svg>
